<svg width="60" height="60" viewBox="0 0 60 60" fill="none" xmlns="http://www.w3.org/2000/svg">
<rect x="0.75" y="0.75" width="58.5" height="58.5" rx="29.25" fill="#F8F6FF"/>
<rect x="0.75" y="0.75" width="58.5" height="58.5" rx="29.25" stroke="url(#paint0_linear_1_50)" stroke-width="1.5"/>
<path fill-rule="evenodd" clip-rule="evenodd" d="M14.5539 24.2981C13.41 22.4824 11.1027 21.7877 9.14653 22.6701C8.53308 22.9467 7.81149 22.6737 7.53481 22.0603C7.25813 21.4469 7.53113 20.7252 8.14457 20.4486C11.2092 19.0664 14.8238 20.1546 16.6158 22.9991L22.5462 32.4125C23.0107 33.1497 23.821 33.5969 24.6922 33.5969C25.5516 33.5969 26.3526 33.1618 26.8202 32.4408L29.3655 28.5168C29.7317 27.9522 30.4863 27.7914 31.0508 28.1577C31.6154 28.5239 31.7762 29.2784 31.41 29.843L28.8647 33.767C27.9477 35.1807 26.3773 36.0339 24.6922 36.0339C22.9838 36.0339 21.395 35.157 20.4843 33.7115L14.5539 24.2981Z" fill="url(#paint1_linear_1_50)"/>
<path fill-rule="evenodd" clip-rule="evenodd" d="M42.0706 18.8309C45.6785 17.2942 49.5966 20.2095 49.1999 24.097C49.1263 24.8177 48.9013 25.5171 48.5393 26.1459L44.1856 33.7077C43.3401 35.1762 41.7746 36.0812 40.0801 36.0812C38.4648 36.0812 36.9608 35.2581 36.0901 33.8976L28.6293 22.2402C28.0751 21.3742 27.1177 20.8502 26.0893 20.8502C25.209 20.8502 24.3726 21.2349 23.7997 21.9034L22.3813 23.5582C21.9434 24.0691 21.1741 24.1284 20.6632 23.6904C20.1522 23.2524 20.093 22.4832 20.531 21.9723L21.9493 20.3174C22.9852 19.1088 24.4975 18.4132 26.0893 18.4132C27.9486 18.4132 29.6797 19.3606 30.6819 20.9266L38.1427 32.584C38.5655 33.2446 39.2958 33.6443 40.0801 33.6443C40.903 33.6443 41.6631 33.2048 42.0736 32.4918L46.4274 24.9299C46.6177 24.5993 46.7367 24.2302 46.7756 23.8496C46.9853 21.7939 44.9138 20.2687 43.0256 21.073C42.1273 21.4556 41.5048 22.2926 41.397 23.2631L41.3455 23.7264C41.2712 24.3952 40.6687 24.8771 39.9999 24.8028C39.3311 24.7285 38.8491 24.126 38.9234 23.4572L38.9749 22.9939C39.1799 21.1492 40.363 19.5582 42.0706 18.8309Z" fill="url(#paint2_linear_1_50)"/>
<path d="M18.8111 47.4815L17.4251 42.3187H18.4369L19.5249 46.7192H19.2616L20.3981 42.3187H21.3752L22.5048 46.7192H22.2415L23.3295 42.3187H24.3412L22.9552 47.4815H21.8742L20.7307 43.1988H21.0356L19.8922 47.4815H18.8111ZM25.2267 49.013C25.125 49.013 25.0257 49.0038 24.9287 48.9853C24.8317 48.9715 24.7439 48.9461 24.6653 48.9091V48.1468C24.7254 48.1607 24.797 48.1745 24.8802 48.1884C24.9679 48.2022 25.0488 48.2092 25.1227 48.2092C25.3306 48.2092 25.4808 48.1607 25.5732 48.0636C25.6702 47.9666 25.7557 47.8396 25.8296 47.6825L26.0791 47.1004L26.0652 47.8627L24.4228 43.7116H25.3999L26.5503 46.7747H26.2038L27.3472 43.7116H28.3313L26.6889 47.8627C26.5919 48.1075 26.4741 48.3154 26.3355 48.4864C26.1969 48.6573 26.0352 48.7867 25.8504 48.8744C25.6702 48.9668 25.4623 49.013 25.2267 49.013ZM28.5041 47.4815V46.7469L30.694 44.2106L30.8326 44.5224H28.6012V43.7116H31.6365V44.4531L29.4882 46.9895L29.3496 46.6776H31.6504V47.4815H28.5041ZM33.3097 47.5647C33.0464 47.5647 32.8177 47.5208 32.6237 47.433C32.4296 47.3452 32.2795 47.2205 32.1732 47.0588C32.0669 46.8925 32.0138 46.7007 32.0138 46.4836C32.0138 46.2757 32.06 46.0909 32.1524 45.9292C32.2448 45.7629 32.388 45.6243 32.5821 45.5134C32.7761 45.4025 33.021 45.324 33.3167 45.2778L34.5502 45.0768V45.7698L33.4899 45.95C33.3097 45.9823 33.1757 46.0401 33.088 46.1232C33.0002 46.2064 32.9563 46.315 32.9563 46.4489C32.9563 46.5783 33.0048 46.6823 33.1018 46.7608C33.2035 46.8347 33.3282 46.8717 33.476 46.8717C33.6655 46.8717 33.8318 46.8324 33.975 46.7539C34.1228 46.6707 34.236 46.5575 34.3146 46.4143C34.3977 46.2711 34.4393 46.114 34.4393 45.9431V44.9729C34.4393 44.8112 34.3746 44.6772 34.2453 44.5709C34.1205 44.46 33.9542 44.4046 33.7463 44.4046C33.5523 44.4046 33.379 44.4577 33.2266 44.564C33.0787 44.6656 32.9702 44.8019 32.9009 44.9729L32.1593 44.6125C32.2333 44.4138 32.3488 44.2429 32.5058 44.0997C32.6675 43.9518 32.857 43.8363 33.0741 43.7532C33.2912 43.67 33.5269 43.6284 33.781 43.6284C34.0905 43.6284 34.3631 43.6862 34.5987 43.8017C34.8343 43.9126 35.0168 44.0696 35.1462 44.2729C35.2801 44.4716 35.3471 44.7049 35.3471 44.9729V47.4815H34.4878V46.837L34.6819 46.8232C34.5848 46.9849 34.4693 47.1212 34.3354 47.232C34.2014 47.3383 34.0489 47.4215 33.878 47.4815C33.707 47.537 33.5176 47.5647 33.3097 47.5647ZM36.1862 47.4815V43.7116H37.0386V44.5501L36.9693 44.4254C37.0571 44.1436 37.1934 43.9472 37.3782 43.8363C37.5676 43.7255 37.794 43.67 38.0573 43.67H38.2791V44.4739H37.9533C37.6946 44.4739 37.4867 44.5547 37.3296 44.7164C37.1726 44.8735 37.094 45.0953 37.094 45.3817V47.4815H36.1862ZM40.5315 47.5647C40.1665 47.5647 39.8408 47.4792 39.5543 47.3083C39.2679 47.1327 39.0415 46.8948 38.8752 46.5945C38.7089 46.2942 38.6257 45.9615 38.6257 45.5966C38.6257 45.227 38.7089 44.8943 38.8752 44.5986C39.0415 44.303 39.2679 44.0673 39.5543 43.8918C39.8454 43.7162 40.1688 43.6284 40.5245 43.6284C40.811 43.6284 41.0651 43.6862 41.2868 43.8017C41.5132 43.9126 41.6911 44.0696 41.8204 44.2729L41.6818 44.46V42.2355H42.5897V47.4815H41.7304V46.7539L41.8274 46.934C41.698 47.1373 41.5178 47.2944 41.2868 47.4053C41.0558 47.5115 40.804 47.5647 40.5315 47.5647ZM40.6285 46.7331C40.8364 46.7331 41.0189 46.6846 41.176 46.5875C41.333 46.4905 41.4555 46.3565 41.5432 46.1856C41.6356 46.0147 41.6818 45.8183 41.6818 45.5966C41.6818 45.3794 41.6356 45.1854 41.5432 45.0144C41.4555 44.8389 41.333 44.7026 41.176 44.6056C41.0189 44.5085 40.8364 44.46 40.6285 44.46C40.4252 44.46 40.2427 44.5109 40.081 44.6125C39.9193 44.7095 39.7923 44.8435 39.6999 45.0144C39.6121 45.1808 39.5682 45.3748 39.5682 45.5966C39.5682 45.8183 39.6121 46.0147 39.6999 46.1856C39.7923 46.3565 39.9193 46.4905 40.081 46.5875C40.2427 46.6846 40.4252 46.7331 40.6285 46.7331Z" fill="black"/>
<defs>
<linearGradient id="paint0_linear_1_50" x1="1.78261" y1="-3.07715e-07" x2="67.9224" y2="46.583" gradientUnits="userSpaceOnUse">
<stop stop-color="#E8ECFF"/>
<stop offset="1" stop-color="#FFE1F4"/>
</linearGradient>
<linearGradient id="paint1_linear_1_50" x1="5.18038" y1="24.2679" x2="30.4639" y2="29.8272" gradientUnits="userSpaceOnUse">
<stop stop-color="#3960F6"/>
<stop offset="1" stop-color="#E534D9"/>
</linearGradient>
<linearGradient id="paint2_linear_1_50" x1="22.3141" y1="23.0206" x2="46.8361" y2="28.5799" gradientUnits="userSpaceOnUse">
<stop stop-color="#F3AB73"/>
<stop offset="1" stop-color="#E933A9"/>
</linearGradient>
</defs>
</svg>
